#!OML:ASF F:\VICON\USERDATA\INSTALL\rory3\rory3.ASF
:FULLY-SPECIFIED
:DEGREES
967
root 1.35321 15.3913 -5.25744 -7.25129 -1.90511 -2.29848
lowerback -8.04586 12.1185 12.1948
upperback -2.91777 15.3453 -4.75369
thorax 5.75635 7.86841 -9.1804
lowerneck 3.60308 -9.222 -14.1184
upperneck 49.8068 -4.31315 -15.6026
head 19.1759 -5.98433 -5.8682
rclavicle -7.35503e-014 -5.08889e-014
rhumerus 68.9634 -5.5268 -74.1187
rradius 146.614
rwrist -64.7903
rhand 0.710495 -39.0278
rfingers 7.12502
rthumb 26.2707 -67.229
lclavicle -7.35503e-014 -5.08889e-014
lhumerus -57.7838 -12.1597 81.5083
lradius 34.8902
lwrist 21.715
lhand -13.8188 -20.5344
lfingers 7.12502
lthumb 12.3038 9.08364
rfemur -12.1312 -34.0246 22.5156
rtibia 64.2373
rfoot -46.9262 -37.6533
rtoes 10.5132
lfemur -35.9106 -20.5646 -0.302343
ltibia 26.6373
lfoot 7.97551 -6.76395
ltoes -14.1847
968
root 1.35101 15.3907 -5.25902 -7.25021 -1.95194 -2.30319
lowerback -8.12213 12.1269 12.2139
upperback -2.88637 15.3451 -4.75156
thorax 5.8365 7.87307 -9.16833
lowerneck 3.66276 -9.21107 -14.0482
upperneck 49.7705 -4.32565 -15.6053
head 19.1233 -5.97619 -5.86724
rclavicle 1.4074e-013 1.90833e-014
rhumerus 69.0313 -5.48839 -74.1437
rradius 146.623
rwrist -64.696
rhand 0.566921 -39.3033
rfingers 7.12502
rthumb 26.1333 -67.5249
lclavicle 1.4074e-013 1.90833e-014
lhumerus -57.9581 -12.3243 81.5866
lradius 35.2236
lwrist 21.5761
lhand -13.087 -20.4749
lfingers 7.12502
lthumb 13.0094 9.09947
rfemur -12.2285 -34.0341 22.5738
rtibia 64.2834
rfoot -46.1561 -38.4513
rtoes 9.39372
lfemur -35.8541 -20.5092 -0.288545
ltibia 26.5657
lfoot 7.97038 -6.73846
ltoes -14.2581
969
root 1.34975 15.3902 -5.26279 -7.22779 -1.93292 -2.19255
lowerback -8.15572 12.1306 12.1236
upperback -2.8487 15.356 -4.79568
thorax 5.88899 7.88248 -9.15479
lowerneck 3.71214 -9.22195 -14.0653
upperneck 49.755 -4.38259 -15.5388
head 19.0979 -5.99431 -5.82968
rclavicle -2.47288e-013 -7.95139e-015
rhumerus 68.9793 -5.51482 -74.1275
rradius 146.731
rwrist -64.5982
rhand 0.457936 -39.5281
rfingers 7.12502
rthumb 26.0289 -67.7651
lclavicle -2.47288e-013 -7.95139e-015
lhumerus -57.6348 -12.1388 81.2738
lradius 34.8435
lwrist 20.5727
lhand -12.9584 -21.7125
lfingers 7.12502
lthumb 13.1333 7.85392
rfemur -12.3838 -34.1095 22.5074
rtibia 64.3367
rfoot -45.1407 -39.4401
rtoes 8.05167
lfemur -35.8641 -20.5031 -0.402562
ltibia 26.5291
lfoot 7.97617 -6.736
ltoes -14.2221
970
root 1.34934 15.3871 -5.26692 -7.21395 -1.93758 -2.06528
lowerback -8.01627 12.1425 12.1064
upperback -2.91103 15.3982 -4.89985
thorax 5.78186 7.9004 -9.28052
lowerneck 3.81523 -9.22118 -13.9583
upperneck 49.7404 -4.40798 -15.5628
head 19.0436 -5.98781 -5.84698
rclavicle 1.01778e-013 3.49861e-014
rhumerus 68.8329 -5.55572 -74.1629
rradius 146.759
rwrist -64.5983
rhand 0.463585 -39.7704
rfingers 7.12502
rthumb 26.0343 -68.0066
lclavicle 1.01778e-013 3.49861e-014
lhumerus -57.6006 -12.2119 81.1924
lradius 34.7276
lwrist 20.5047
lhand -12.9646 -21.7127
lfingers 7.12502
lthumb 13.1273 7.85413
rfemur -12.4443 -34.082 22.3813
rtibia 64.4043
rfoot -45.4903 -39.024
rtoes 8.50614
lfemur -35.877 -20.5005 -0.523024
ltibia 26.5022
lfoot 8.01025 -6.73271
ltoes -14.2125
971
root 1.34736 15.3855 -5.26753 -7.27218 -1.96663 -2.08211
lowerback -7.92187 12.0893 12.1652
upperback -2.83239 15.3321 -4.86458
thorax 5.80337 7.87404 -9.30137
lowerneck 3.61723 -9.20191 -13.939
upperneck 49.6762 -4.29346 -15.694
head 19.0544 -5.95188 -5.90713
rclavicle -5.08889e-014 3.02153e-014
rhumerus 69.0623 -5.46031 -74.2175
rradius 146.656
rwrist -64.7211
rhand 0.60996 -39.8842
rfingers 7.12502
rthumb 26.1745 -68.0997
lclavicle -5.08889e-014 3.02153e-014
lhumerus -57.4694 -12.1433 81.3259
lradius 34.6074
lwrist 21.2143
lhand -11.6696 -19.9232
lfingers 7.12502
lthumb 14.3753 9.55908
rfemur -12.3304 -34.0245 22.3519
rtibia 64.4453
rfoot -46.2237 -38.1513
rtoes 9.64377
lfemur -35.8069 -20.4765 -0.515557
ltibia 26.4988
lfoot 7.99169 -6.79074
ltoes -14.3537
972
root 1.34388 15.3852 -5.26881 -7.32861 -2.01711 -2.14387
lowerback -7.8404 12.0706 12.2264
upperback -2.78379 15.3088 -4.80927
thorax 5.80512 7.86526 -9.29112
lowerneck 3.48161 -9.21722 -14.0439
upperneck 49.6995 -4.26403 -15.7132
head 19.1231 -5.96239 -5.9167
rclavicle 4.69132e-014 1.43125e-014
rhumerus 69.2165 -5.41052 -74.2657
rradius 146.585
rwrist -64.904
rhand 0.851935 -39.6894
rfingers 7.12502
rthumb 26.4061 -67.8704
lclavicle 4.69132e-014 1.43125e-014
lhumerus -57.3743 -12.1043 81.4179
lradius 34.4155
lwrist 21.5086
lhand -11.0476 -19.5244
lfingers 7.12502
lthumb 14.9746 9.91415
rfemur -12.2318 -33.9522 22.402
rtibia 64.4611
rfoot -46.7874 -37.6388
rtoes 10.6653
lfemur -35.7282 -20.4586 -0.442157
ltibia 26.4807
lfoot 7.98191 -6.83124
ltoes -14.4926
973
root 1.33986 15.3829 -5.27003 -7.3804 -2.12109 -2.15218
lowerback -7.69846 12.0994 12.2415
upperback -2.82603 15.3631 -4.79643
thorax 5.69568 7.88584 -9.30431
lowerneck 3.52061 -9.23699 -14.1907
upperneck 49.7927 -4.32656 -15.5847
head 19.1964 -6.00264 -5.85558
rclavicle 2.21049e-013 3.65764e-014
rhumerus 69.0809 -5.44248 -74.2837
rradius 146.601
rwrist -65.0307
rhand 1.07389 -39.7607
rfingers 7.12502
rthumb 26.6186 -67.9095
lclavicle 2.21049e-013 3.65764e-014
lhumerus -57.4852 -12.2069 81.4561
lradius 34.3448
lwrist 21.5068
lhand -10.9352 -20.292
lfingers 7.12502
lthumb 15.0829 9.13846
rfemur -12.071 -33.7457 22.3654
rtibia 64.5252
rfoot -48.3077 -35.8966
rtoes 12.726
lfemur -35.5951 -20.4126 -0.419504
ltibia 26.4172
lfoot 8.01346 -6.78379
ltoes -14.7234
974
root 1.33911 15.3833 -5.26933 -7.36957 -2.14638 -1.90956
lowerback -7.69837 12.0897 12.0128
upperback -2.82674 15.3698 -4.84001
thorax 5.65147 7.88433 -9.23323
lowerneck 3.54204 -9.21479 -14.3197
upperneck 49.8162 -4.3185 -15.4877
head 19.2271 -6.01191 -5.79158
rclavicle -3.37934e-014 5.56597e-014
rhumerus 68.9474 -5.43368 -74.1693
rradius 146.656
rwrist -64.9902
rhand 0.983347 -39.9151
rfingers 7.12502
rthumb 26.5319 -68.0772
lclavicle -3.37934e-014 5.56597e-014
lhumerus -57.5222 -12.1452 81.3584
lradius 34.2601
lwrist 21.0936
lhand -10.9076 -21.9252
lfingers 7.12502
lthumb 15.1095 7.50332
rfemur -12.3239 -33.9138 22.1589
rtibia 64.6314
rfoot -46.2213 -38.4687
rtoes 9.07793
lfemur -35.4463 -20.4408 -0.663977
ltibia 26.1801
lfoot 8.14925 -6.67431
ltoes -14.6634
975
root 1.34279 15.3814 -5.27229 -7.25101 -2.0486 -1.53482
lowerback -7.79406 12.0566 11.673
upperback -2.84452 15.3466 -4.94961
thorax 5.62429 7.86751 -9.16615
lowerneck 3.5758 -9.23157 -14.3813
upperneck 49.7858 -4.34684 -15.5006
head 19.2026 -6.03537 -5.78437
rclavicle -4.85035e-014 -5.40694e-014
rhumerus 68.8648 -5.43358 -74.0865
rradius 146.738
rwrist -64.9768
rhand 0.85531 -39.9286
rfingers 7.12502
rthumb 26.4094 -68.1091
lclavicle -4.85035e-014 -5.40694e-014
lhumerus -57.4969 -11.9906 81.1369
lradius 34.1917
lwrist 20.3541
lhand -11.1611 -24.3794
lfingers 7.12502
lthumb 14.8653 5.06731
rfemur -12.595 -34.0846 21.7277
rtibia 64.9461
rfoot -46.0352 -38.6077
rtoes 8.46605
lfemur -35.3589 -20.5444 -1.02228
ltibia 25.6808
lfoot 8.45902 -6.61383
ltoes -14.3063
976
root 1.34271 15.3807 -5.27645 -7.05291 -2.05743 -0.60215
lowerback -7.99146 12.0699 10.7042
upperback -2.92187 15.4319 -5.21828
thorax 5.50174 7.88995 -8.90542
lowerneck 3.84129 -9.26815 -14.3929
upperneck 49.7085 -4.46457 -15.5332
head 19.0703 -6.08692 -5.7747
rclavicle -9.14409e-015 -3.49861e-014
rhumerus 68.6132 -5.46828 -74.1671
rradius 146.877
rwrist -65.0977
rhand 1.08432 -40.0299
rfingers 7.12502
rthumb 26.6285 -68.1773
lclavicle -9.14409e-015 -3.49861e-014
lhumerus -57.7316 -12.1622 81.2681
lradius 34.4328
lwrist 20.6798
lhand -11.446 -23.547
lfingers 7.12502
lthumb 14.5908 5.91976
rfemur -13.0865 -33.946 20.8328
rtibia 65.4235
rfoot -46.9046 -37.6108
rtoes 9.72753
lfemur -35.2051 -20.6757 -1.86011
ltibia 24.963
lfoot 8.88969 -6.39794
ltoes -14.356
977
root 1.33926 15.3814 -5.27499 -6.73509 -2.20955 1.18024
lowerback -8.41572 12.1609 8.82199
upperback -3.07202 15.6892 -5.74155
thorax 5.30023 7.98186 -8.36863
lowerneck 4.3371 -9.2684 -14.2088
upperneck 49.6513 -4.56066 -15.6306
head 18.868 -6.09932 -5.80513
rclavicle 7.83212e-014 -4.6118e-014
rhumerus 68.1864 -5.54675 -74.2662
rradius 146.938
rwrist -65.1349
rhand 1.46635 -39.9206
rfingers 7.12502
rthumb 26.9941 -68.0119
lclavicle 7.83212e-014 -4.6118e-014
lhumerus -58.174 -12.6238 81.6425
lradius 34.764
lwrist 21.7244
lhand -11.3168 -19.9125
lfingers 7.12502
lthumb 14.7153 9.54522
rfemur -13.8107 -33.5093 19.1127
rtibia 66.05
rfoot -48.4683 -35.4384
rtoes 12.0651
lfemur -35.1063 -20.8622 -3.45989
ltibia 24.2261
lfoot 9.34176 -5.88436
ltoes -14.7178
978
root 1.33431 15.3854 -5.27539 -6.5222 -2.245 2.27352
lowerback -8.65942 12.2116 7.65195
upperback -3.16486 15.8501 -6.0796
thorax 5.16215 8.04126 -8.05397
lowerneck 4.54596 -9.30844 -13.9882
upperneck 49.6523 -4.6389 -15.7567
head 18.777 -6.10455 -5.88816
rclavicle 3.85642e-014 5.725e-014
rhumerus 68.0372 -5.6439 -74.2444
rradius 146.834
rwrist -64.98
rhand 1.59525 -39.8587
rfingers 7.12502
rthumb 27.1174 -67.9308
lclavicle 3.85642e-014 5.725e-014
lhumerus -58.3211 -12.8685 81.7522
lradius 34.8044
lwrist 22.1177
lhand -10.8295 -18.582
lfingers 7.12502
lthumb 15.1847 10.8408
rfemur -14.6056 -33.5654 18.1949
rtibia 66.4585
rfoot -46.5904 -37.9089
rtoes 8.96203
lfemur -34.982 -20.9534 -4.46569
ltibia 23.5858
lfoot 9.67715 -5.67903
ltoes -14.9557
